HIERARCHY
ROOT Hips
{
	OFFSET	0.000000	0.000000	0.000000
	CHANNELS 6 Xposition Yposition Zposition Zrotation Xrotation Yrotation
	JOINT LeftUpLeg
	{
		OFFSET	12.830505	-7.049846	-1.643436
		CHANNELS 3 Zrotation Xrotation Yrotation
		JOINT LeftLeg
		{
			OFFSET	0.620834	-39.957502	-1.919341
			CHANNELS 3 Zrotation Xrotation Yrotation
			JOINT LeftFoot
			{
				OFFSET	-0.413890	-44.704761	-3.870325
				CHANNELS 3 Zrotation Xrotation Yrotation
				JOINT LeftFootHeel
				{
					OFFSET	0.164738	-8.918194	-6.555130
					CHANNELS 3 Zrotation Xrotation Yrotation
					End Site
					{
						OFFSET	-0.604053	0.000000	21.044330
					}
				}
			}
		}
	}
	JOINT RightUpLeg
	{
		OFFSET	-12.830505	-7.049846	-1.643436
		CHANNELS 3 Zrotation Xrotation Yrotation
		JOINT RightLeg
		{
			OFFSET	-0.620834	-39.957502	-1.919341
			CHANNELS 3 Zrotation Xrotation Yrotation
			JOINT RightFoot
			{
				OFFSET	0.413890	-44.704761	-3.870325
				CHANNELS 3 Zrotation Xrotation Yrotation
				JOINT RightFootHeel
				{
					OFFSET	-0.164738	-8.918194	-6.555130
					CHANNELS 3 Zrotation Xrotation Yrotation
					End Site
					{
						OFFSET	0.604053	0.000000	21.044330
					}
				}
			}
		}
	}
	JOINT Spine
	{
		OFFSET	0.000000	12.498171	1.820647
		CHANNELS 3 Zrotation Xrotation Yrotation
		JOINT Spine1
		{
			OFFSET	0.000000	7.620000	0.000000
			CHANNELS 3 Zrotation Xrotation Yrotation
			JOINT LeftShoulder
			{
				OFFSET	9.167800	29.136339	-5.551221
				CHANNELS 3 Zrotation Xrotation Yrotation
				JOINT LeftArm
				{
					OFFSET	12.133453	-3.880866	1.461963
					CHANNELS 3 Zrotation Xrotation Yrotation
					JOINT LeftForeArm
					{
						OFFSET	2.507115	-31.664910	-1.069404
						CHANNELS 3 Zrotation Xrotation Yrotation
						JOINT LeftHand
						{
							OFFSET	4.116172	-24.512624	5.009439
							CHANNELS 3 Zrotation Xrotation Yrotation
							End Site
							{
								OFFSET	-0.213136	-10.931856	2.182134
							}
						}
					}
				}
			}
			JOINT RightShoulder
			{
				OFFSET	-9.167800	29.136339	-5.551221
				CHANNELS 3 Zrotation Xrotation Yrotation
				JOINT RightArm
				{
					OFFSET	-12.133453	-3.880866	1.461963
					CHANNELS 3 Zrotation Xrotation Yrotation
					JOINT RightForeArm
					{
						OFFSET	-2.507115	-31.664910	-1.069404
						CHANNELS 3 Zrotation Xrotation Yrotation
						JOINT RightHand
						{
							OFFSET	-4.116172	-24.512624	5.009439
							CHANNELS 3 Zrotation Xrotation Yrotation
							End Site
							{
								OFFSET	0.213136	-10.931856	2.182134
							}
						}
					}
				}
			}
			JOINT Neck
			{
				OFFSET	0.000000	32.926275	-3.635654
				CHANNELS 3 Zrotation Xrotation Yrotation
				JOINT Head
				{
					OFFSET	0.000000	12.481178	4.646143
					CHANNELS 3 Zrotation Xrotation Yrotation
					End Site
					{
						OFFSET	0.000000	17.715205	-2.222063
					}
				}
			}
		}
	}
}
MOTION
Frames:     20
Frame Time: 0.016667
0.000000	103.281000	0.000000	0.065383	-0.796817	0.254094	0.425031	1.270920	-1.605445	0.016090	-1.987225	-0.540291	-0.625387	1.280591	-0.129254	0.	0.	0.	0.215472	-0.030510	1.503675	0.057632	1.950315	0.915700	-1.151411	-1.942702	-9.136147	0.	0.	0.	0.000000	-0.000000	-0.000001	-0.090329	0.694328	1.250542	-1.520662	-1.136893	-2.448909	-2.119181	-1.310149	5.506845	9.834501	6.568521	-11.151036	-4.577164	-0.790449	-7.525215	-1.030222	-0.082993	-2.606668	0.956210	2.175991	2.857174	-0.687333	0.417223	1.056834	2.080278	-4.115353	-1.912648	-1.333682	-5.861589	0.465543	-0.078231	1.388169	2.043270	
0.000000	103.281000	0.000000	0.065383	-0.796817	0.254094	0.425031	1.270920	-1.605445	0.016090	-1.987225	-0.540291	-0.625387	1.280591	-0.129254	0.	0.	0.	0.215472	-0.030510	1.503675	0.057632	1.950315	0.915700	-1.151411	-1.942702	-9.136147	0.	0.	0.	0.000000	-0.000000	-0.000001	-0.086645	0.713344	1.252566	-1.517714	-1.140856	-2.451526	-2.126722	-1.326612	5.520110	9.827170	6.567688	-11.091338	-4.612499	-0.776664	-7.567124	-1.037421	-0.086216	-2.601206	0.952088	2.179516	2.867049	-0.679965	0.397874	1.039415	2.080278	-4.115353	-1.912648	-1.354807	-5.871935	0.426189	-0.075090	1.368400	2.090152	
0.000000	103.281000	0.000000	0.065383	-0.796817	0.254094	0.425031	1.270920	-1.605445	0.016090	-1.987225	-0.540291	-0.625387	1.280591	-0.129254	0.	0.	0.	0.215472	-0.030510	1.503675	0.057632	1.950315	0.915700	-1.151411	-1.942702	-9.136147	0.	0.	0.	0.000000	-0.000000	-0.000001	-0.085007	0.721814	1.253472	-1.504479	-1.147214	-2.440184	-2.144295	-1.331793	5.536374	9.826890	6.565687	-11.074324	-4.613649	-0.770552	-7.583795	-1.040883	-0.086336	-2.598117	0.949889	2.181623	2.871968	-0.676774	0.387666	1.034106	2.075470	-4.114861	-1.904808	-1.360908	-5.878223	0.415915	-0.077531	1.361490	2.104926	
0.000000	103.281000	0.000000	0.065383	-0.796817	0.254094	0.425031	1.270920	-1.605445	0.016090	-1.987225	-0.540291	-0.625387	1.280591	-0.129254	0.	0.	0.	0.215472	-0.030510	1.503675	0.057632	1.950315	0.915700	-1.151411	-1.942702	-9.136147	0.	0.	0.	0.000000	-0.000000	-0.000001	-0.082236	0.736124	1.254998	-1.484655	-1.164517	-2.420303	-2.170480	-1.332172	5.547958	9.813005	6.551361	-10.990565	-4.604548	-0.744336	-7.665578	-1.043462	-0.092347	-2.593386	0.945422	2.184479	2.874411	-0.676286	0.378214	1.043230	2.068476	-4.116975	-1.904067	-1.377907	-5.885429	0.383850	-0.070166	1.353370	2.139427	
0.000000	103.281000	0.000000	0.065383	-0.796817	0.254094	0.425031	1.270920	-1.605445	0.016090	-1.987225	-0.540291	-0.625387	1.280591	-0.129254	0.	0.	0.	0.215472	-0.030510	1.503675	0.057632	1.950315	0.915700	-1.151411	-1.942702	-9.136147	0.	0.	0.	0.000000	-0.000000	-0.000001	-0.081616	0.739330	1.255337	-1.420168	-1.176377	-2.358407	-2.254195	-1.342980	5.701456	9.784241	6.440060	-10.953606	-4.657993	-0.659086	-7.689948	-1.026887	-0.052141	-2.542536	0.910617	2.173959	2.895448	-0.683889	0.411285	1.094099	2.100504	-4.164095	-1.953455	-1.395194	-5.880158	0.347054	-0.075062	1.354568	2.197300	
0.000000	103.281000	0.000000	0.065383	-0.796817	0.254094	0.425031	1.270920	-1.605445	0.016090	-1.987225	-0.540291	-0.625387	1.280591	-0.129254	0.	0.	0.	0.215472	-0.030510	1.503675	0.057632	1.950315	0.915700	-1.151411	-1.942702	-9.136147	0.	0.	0.	0.000000	-0.000000	-0.000001	-0.081616	0.739330	1.255337	-1.416633	-1.175338	-2.346231	-2.263951	-1.350236	5.766567	9.774141	6.402598	-10.935533	-4.700959	-0.657402	-7.707971	-1.019220	-0.037357	-2.523044	0.896600	2.162465	2.916363	-0.683190	0.444065	1.079353	2.108070	-4.176411	-1.949699	-1.399739	-5.877832	0.337041	-0.075935	1.354664	2.212686	
0.000000	103.281000	0.000000	0.065383	-0.796817	0.254094	0.425031	1.270920	-1.605445	0.016090	-1.987225	-0.540291	-0.625387	1.280591	-0.129254	0.	0.	0.	0.215472	-0.030510	1.503675	0.057632	1.950315	0.915700	-1.151411	-1.942702	-9.136147	0.	0.	0.	0.000000	-0.000000	-0.000001	-0.081616	0.739330	1.255337	-1.403081	-1.167416	-2.276582	-2.290145	-1.370803	5.835767	9.745472	6.330893	-10.851031	-4.821981	-0.701884	-7.681133	-0.992142	-0.011030	-2.473050	0.853620	2.143280	2.966136	-0.666298	0.453774	1.024653	2.121726	-4.158203	-1.971914	-1.399227	-5.873806	0.323775	-0.092536	1.358145	2.243841	
0.000000	103.281000	0.000000	0.065383	-0.796817	0.254094	0.425031	1.270920	-1.605445	0.016090	-1.987225	-0.540291	-0.625387	1.280591	-0.129254	0.	0.	0.	0.215472	-0.030510	1.503675	0.057632	1.950315	0.915700	-1.151411	-1.942702	-9.136147	0.	0.	0.	0.000000	-0.000000	-0.000001	-0.076442	0.733229	1.301200	-1.419694	-1.152995	-2.299314	-2.279787	-1.376520	5.812258	9.742219	6.330687	-10.829167	-4.840657	-0.741720	-7.635912	-0.979945	0.006688	-2.491445	0.826376	2.166371	2.949558	-0.603974	0.422356	1.033056	2.082738	-4.161735	-1.982889	-1.393009	-5.874641	0.312860	-0.119120	1.371969	2.223454	
0.000000	103.281000	0.000000	0.065383	-0.796817	0.254094	0.425031	1.270920	-1.605445	0.016090	-1.987225	-0.540291	-0.625387	1.280591	-0.129254	0.	0.	0.	0.215472	-0.030510	1.503675	0.057632	1.950315	0.915700	-1.151411	-1.942702	-9.136147	0.	0.	0.	0.000000	-0.000000	-0.000001	-0.072031	0.727825	1.342199	-1.429029	-1.144417	-2.335533	-2.271354	-1.372591	5.758170	9.742623	6.335480	-10.846953	-4.798294	-0.758802	-7.579082	-0.972289	0.025397	-2.509716	0.812675	2.165228	2.925724	-0.535444	0.414046	1.046982	2.073798	-4.202181	-1.962282	-1.390962	-5.852080	0.305382	-0.141849	1.362220	2.205503	
0.000000	103.281000	0.000000	0.065383	-0.796817	0.254094	0.425031	1.270920	-1.605445	0.016090	-1.987225	-0.540291	-0.625387	1.280591	-0.129254	0.	0.	0.	0.215472	-0.030510	1.503675	0.057632	1.950315	0.915700	-1.151411	-1.942702	-9.136147	0.	0.	0.	0.000000	-0.000000	-0.000001	-0.069098	0.724128	1.370399	-1.432435	-1.139948	-2.363673	-2.267386	-1.367497	5.712991	9.741095	6.339523	-10.851580	-4.757519	-0.774287	-7.569601	-0.975120	0.029642	-2.537885	0.833346	2.196473	2.926798	-0.502229	0.387330	1.055459	2.104258	-4.205121	-1.924273	-1.385785	-5.823265	0.315707	-0.153177	1.351745	2.184331	
0.000000	103.281000	0.000000	0.065383	-0.796817	0.254094	0.425031	1.270920	-1.605445	0.016090	-1.987225	-0.540291	-0.625387	1.280591	-0.129254	0.	0.	0.	0.215472	-0.030510	1.503675	0.057632	1.950315	0.915700	-1.151411	-1.942702	-9.136147	0.	0.	0.	0.000000	-0.000000	-0.000001	-0.067320	0.721896	1.387450	-1.433929	-1.131471	-2.346115	-2.259627	-1.360138	5.576211	9.729259	6.347277	-10.811590	-4.691038	-0.797363	-7.620368	-0.974362	0.036129	-2.549254	0.858549	2.206329	2.924435	-0.510058	0.376656	1.062373	2.169874	-4.178348	-1.887593	-1.379479	-5.797348	0.333871	-0.158206	1.352639	2.173445	
0.000000	103.281000	0.000000	0.065383	-0.796817	0.254094	0.425031	1.270920	-1.605445	0.016090	-1.987225	-0.540291	-0.625387	1.280591	-0.129254	0.	0.	0.	0.215472	-0.030510	1.503675	0.057632	1.950315	0.915700	-1.151411	-1.942702	-9.136147	0.	0.	0.	0.000000	-0.000000	-0.000001	-0.065703	0.719879	1.402900	-1.444667	-1.123896	-2.346938	-2.249249	-1.362085	5.542153	9.723125	6.348663	-10.776927	-4.694416	-0.794757	-7.612741	-0.966632	0.053154	-2.543420	0.863408	2.194450	2.905091	-0.488564	0.377148	1.081669	2.168554	-4.163376	-1.890449	-1.382171	-5.770292	0.331581	-0.159248	1.373531	2.190784	
0.000000	103.281000	0.000000	0.065383	-0.796817	0.254094	0.425031	1.270920	-1.605445	0.016090	-1.987225	-0.540291	-0.625387	1.280591	-0.129254	0.	0.	0.	0.215472	-0.030510	1.503675	0.057632	1.950315	0.915700	-1.151411	-1.942702	-9.136147	0.	0.	0.	0.000000	-0.000000	-0.000001	-0.063770	0.717460	1.421399	-1.453962	-1.117525	-2.357565	-2.241823	-1.364334	5.529188	9.712559	6.349034	-10.705159	-4.699639	-0.784519	-7.619419	-0.960811	0.068017	-2.544371	0.856942	2.181772	2.887727	-0.467842	0.384607	1.085190	2.169050	-4.170653	-1.900188	-1.386378	-5.761759	0.314623	-0.163673	1.405928	2.199913	
0.000000	103.281000	0.000000	0.065383	-0.796817	0.254094	0.425031	1.270920	-1.605445	0.016090	-1.987225	-0.540291	-0.625387	1.280591	-0.129254	0.	0.	0.	0.215472	-0.030510	1.503675	0.057632	1.950315	0.915700	-1.151411	-1.942702	-9.136147	0.	0.	0.	0.000000	-0.000000	-0.000001	-0.061900	0.715112	1.439360	-1.456124	-1.114676	-2.375486	-2.242799	-1.365653	5.540431	9.711239	6.348044	-10.691662	-4.711019	-0.778108	-7.581046	-0.962085	0.079306	-2.555464	0.858383	2.172568	2.873827	-0.461623	0.389340	1.051450	2.175656	-4.224761	-1.948091	-1.385263	-5.747269	0.313967	-0.162404	1.413333	2.179807	
0.000000	103.281000	0.000000	0.065383	-0.796817	0.254094	0.425031	1.270920	-1.605445	0.016090	-1.987225	-0.540291	-0.625387	1.280591	-0.129254	0.	0.	0.	0.215472	-0.030510	1.503675	0.057632	1.950315	0.915700	-1.151411	-1.942702	-9.136147	0.	0.	0.	0.000000	-0.000000	-0.000001	-0.060746	0.713668	1.450423	-1.457454	-1.112922	-2.386524	-2.242799	-1.365653	5.540431	9.719488	6.343957	-10.681276	-4.724455	-0.773495	-7.572836	-0.963185	0.080965	-2.566514	0.862540	2.171019	2.851163	-0.458338	0.388481	1.035624	2.190223	-4.252877	-1.989265	-1.359441	-5.734756	0.299384	-0.208049	1.406541	2.177693	
0.000000	103.281000	0.000000	0.065383	-0.796817	0.254094	0.425031	1.270920	-1.605445	0.016090	-1.987225	-0.540291	-0.625387	1.280591	-0.129254	0.	0.	0.	0.215472	-0.030510	1.503675	0.057632	1.950315	0.915700	-1.151411	-1.942702	-9.136147	0.	0.	0.	0.000000	-0.000000	-0.000001	-0.060746	0.713668	1.450423	-1.457454	-1.112922	-2.386524	-2.242799	-1.365653	5.540431	9.719488	6.343957	-10.681276	-4.724455	-0.773495	-7.572836	-0.963185	0.080965	-2.566514	0.862540	2.171019	2.851163	-0.458338	0.388481	1.035624	2.198624	-4.253273	-2.006202	-1.348055	-5.728042	0.296695	-0.219504	1.399868	2.181493	
0.000000	103.281000	0.000000	0.065383	-0.796817	0.254094	0.425031	1.270920	-1.605445	0.016090	-1.987225	-0.540291	-0.625387	1.280591	-0.129254	0.	0.	0.	0.215472	-0.030510	1.503675	0.057632	1.950315	0.915700	-1.151411	-1.942702	-9.136147	0.	0.	0.	0.000000	-0.000000	-0.000001	-0.060746	0.713668	1.450423	-1.457454	-1.112922	-2.386524	-2.240782	-1.362884	5.516819	9.718731	6.344230	-10.664285	-4.704808	-0.776151	-7.544685	-0.963185	0.080965	-2.566514	0.893635	2.186614	2.854897	-0.488501	0.422622	1.006857	2.195657	-4.299522	-1.974699	-1.348947	-5.717441	0.299703	-0.249833	1.396416	2.165093	
0.000000	103.281000	0.000000	0.065383	-0.796817	0.254094	0.425031	1.270920	-1.605445	0.016090	-1.987225	-0.540291	-0.625387	1.280591	-0.129254	0.	0.	0.	0.215472	-0.030510	1.503675	0.057632	1.950315	0.915700	-1.151411	-1.942702	-9.136147	0.	0.	0.	0.000000	-0.000000	-0.000001	-0.060746	0.713668	1.450423	-1.457454	-1.112922	-2.386524	-2.240494	-1.362490	5.513440	9.718029	6.344441	-10.660866	-4.701041	-0.776626	-7.543744	-0.963185	0.080965	-2.566514	0.897040	2.187556	2.855353	-0.488884	0.430389	1.006225	2.171834	-4.305904	-1.931294	-1.348947	-5.717441	0.299703	-0.249833	1.396416	2.165093	
0.000181	103.280942	0.000574	0.065383	-0.796817	0.254094	0.425031	1.270920	-1.605445	0.016090	-1.987225	-0.540291	-0.625387	1.280591	-0.129254	0.	0.	0.	0.215472	-0.030510	1.503675	0.057157	1.951083	0.912662	-1.150845	-1.943539	-9.133107	0.	0.	0.	0.000000	-0.000000	-0.000001	-0.060746	0.713668	1.450423	-1.457454	-1.112922	-2.386524	-2.243773	-1.366743	5.553013	9.724333	6.341791	-10.687805	-4.700206	-0.775212	-7.553202	-0.963185	0.080965	-2.566514	0.897040	2.187556	2.855353	-0.483118	0.378563	1.011008	2.152526	-4.253521	-1.909956	-1.348947	-5.717441	0.299703	-0.255346	1.413491	2.173458	
0.000564	103.280816	0.001776	0.065383	-0.796817	0.254094	0.425031	1.270920	-1.605445	0.016090	-1.987225	-0.540291	-0.625387	1.280591	-0.129254	0.	0.	0.	0.215472	-0.030510	1.503675	0.056159	1.952690	0.906297	-1.149659	-1.945290	-9.126737	0.	0.	0.	0.000000	-0.000000	-0.000001	-0.061085	0.714091	1.447178	-1.457063	-1.113436	-2.383286	-2.246227	-1.369898	5.582753	9.722462	6.339421	-10.662566	-4.697249	-0.768180	-7.589942	-0.962861	0.080480	-2.563272	0.908500	2.186662	2.790864	-0.493507	0.348378	1.077627	2.169201	-4.241121	-1.863568	-1.348294	-5.717948	0.302958	-0.258116	1.423704	2.177898	
